<?xml version="1.0" standalone="no"?>
<!DOCTYPE svg PUBLIC "-//W3C//DTD SVG 20010904//EN"
 "http://www.w3.org/TR/2001/REC-SVG-20010904/DTD/svg10.dtd">
<svg version="1.0" xmlns="http://www.w3.org/2000/svg"
 width="428.000000pt" height="575.000000pt" viewBox="0 0 428.000000 575.000000"
 preserveAspectRatio="xMidYMid meet">
<metadata>
created by rocha
</metadata>
<g transform="translate(0.000000,575.000000) scale(0.100000,-0.100000)"
fill="#000000" stroke="none">
<path d="M2700 5264 c-136 -17 -304 -65 -408 -118 -99 -50 -228 -160 -280
-238 -13 -21 -28 -38 -33 -38 -5 0 -21 26 -36 57 -42 86 -157 203 -240 243
-77 38 -158 60 -196 53 -59 -11 -96 -98 -60 -141 10 -13 42 -28 76 -37 83 -21
133 -50 192 -109 95 -95 155 -261 171 -473 7 -88 6 -93 -13 -93 -45 0 -183
-43 -259 -80 -135 -66 -263 -200 -328 -341 -53 -117 -69 -181 -101 -399 -63
-421 -135 -600 -358 -886 -184 -236 -272 -386 -332 -567 -44 -134 -59 -242
-52 -386 7 -158 41 -284 117 -436 196 -393 560 -656 1066 -769 242 -54 412
-57 641 -11 525 106 911 382 1110 791 29 61 65 156 80 210 24 89 27 115 27
269 -1 143 -4 183 -22 250 -30 107 -70 211 -88 226 -8 6 -40 14 -72 16 -124 9
-263 62 -367 139 -161 119 -273 364 -259 567 5 79 40 196 82 270 l29 52 -33
215 c-40 258 -62 349 -113 455 -106 219 -303 372 -529 410 l-42 7 0 54 0 55
73 -8 c110 -12 331 -7 433 11 351 61 620 248 760 530 39 80 46 100 40 131 -10
50 -45 69 -180 95 -108 21 -403 35 -496 24z"/>
</g>
</svg>
