{
    "asset" : {
        "generator" : "Khronos glTF Blender I/O v1.7.33",
        "version" : "2.0"
    },
    "scene" : 0,
    "scenes" : [
        {
            "name" : "Scene",
            "nodes" : [
                0
            ]
        }
    ],
    "nodes" : [
        {
            "mesh" : 0,
            "name" : "Plane",
            "rotation" : [
                0.7071068286895752,
                0,
                0,
                0.7071068286895752
            ]
        }
    ],
    "materials" : [
        {
            "doubleSided" : true,
            "name" : "metal",
            "pbrMetallicRoughness" : {
                "baseColorFactor" : [
                    0.26676100492477417,
                    0.26676100492477417,
                    0.26676100492477417,
                    1
                ],
                "roughnessFactor" : 0.5
            }
        },
        {
            "doubleSided" : true,
            "name" : "color",
            "pbrMetallicRoughness" : {
                "baseColorFactor" : [
                    0.7835381031036377,
                    0.006995305418968201,
                    0.9473065137863159,
                    1
                ],
                "metallicFactor" : 0,
                "roughnessFactor" : 0.5
            }
        },
        {
            "doubleSided" : true,
            "name" : "GLASS",
            "pbrMetallicRoughness" : {
                "baseColorFactor" : [
                    0,
                    0,
                    0,
                    1
                ],
                "roughnessFactor" : 0.1165803074836731
            }
        },
        {
            "doubleSided" : true,
            "name" : "Screen",
            "pbrMetallicRoughness" : {
                "baseColorTexture" : {
                    "index" : 0
                },
                "metallicFactor" : 0.5077720284461975,
                "roughnessFactor" : 0.12953367829322815
            }
        }
    ],
    "meshes" : [
        {
            "name" : "Plane",
            "primitives" : [
                {
                    "attributes" : {
                        "POSITION" : 0,
                        "NORMAL" : 1,
                        "TEXCOORD_0" : 2
                    },
                    "indices" : 3,
                    "material" : 0
                },
                {
                    "attributes" : {
                        "POSITION" : 4,
                        "NORMAL" : 5,
                        "TEXCOORD_0" : 6
                    },
                    "indices" : 7,
                    "material" : 1
                },
                {
                    "attributes" : {
                        "POSITION" : 8,
                        "NORMAL" : 9,
                        "TEXCOORD_0" : 10
                    },
                    "indices" : 11,
                    "material" : 2
                },
                {
                    "attributes" : {
                        "POSITION" : 12,
                        "NORMAL" : 13,
                        "TEXCOORD_0" : 14
                    },
                    "indices" : 15,
                    "material" : 3
                }
            ]
        }
    ],
    "textures" : [
        {
            "sampler" : 0,
            "source" : 0
        }
    ],
    "images" : [
        {
            "mimeType" : "image/jpeg",
            "name" : "DbpZrxeX0AAtwUX",
            "uri" : "DbpZrxeX0AAtwUX.jpg"
        }
    ],
    "accessors" : [
        {
            "bufferView" : 0,
            "componentType" : 5126,
            "count" : 338,
            "max" : [
                1.0724294185638428,
                0.022223811596632004,
                1.670802354812622
            ],
            "min" : [
                -1.0125272274017334,
                -0.15851952135562897,
                -1.7024874687194824
            ],
            "type" : "VEC3"
        },
        {
            "bufferView" : 1,
            "componentType" : 5126,
            "count" : 338,
            "type" : "VEC3"
        },
        {
            "bufferView" : 2,
            "componentType" : 5126,
            "count" : 338,
            "type" : "VEC2"
        },
        {
            "bufferView" : 3,
            "componentType" : 5123,
            "count" : 348,
            "type" : "SCALAR"
        },
        {
            "bufferView" : 4,
            "componentType" : 5126,
            "count" : 1776,
            "max" : [
                1.0724294185638428,
                0.022223811596632004,
                1.670802354812622
            ],
            "min" : [
                -1.0125272274017334,
                -0.21775080263614655,
                -1.7024874687194824
            ],
            "type" : "VEC3"
        },
        {
            "bufferView" : 5,
            "componentType" : 5126,
            "count" : 1776,
            "type" : "VEC3"
        },
        {
            "bufferView" : 6,
            "componentType" : 5126,
            "count" : 1776,
            "type" : "VEC2"
        },
        {
            "bufferView" : 7,
            "componentType" : 5123,
            "count" : 1989,
            "type" : "SCALAR"
        },
        {
            "bufferView" : 8,
            "componentType" : 5126,
            "count" : 265,
            "max" : [
                0.3429626226425171,
                0.022223811596632004,
                1.5016744136810303
            ],
            "min" : [
                -0.12498331069946289,
                -0.21775080263614655,
                -1.422285795211792
            ],
            "type" : "VEC3"
        },
        {
            "bufferView" : 9,
            "componentType" : 5126,
            "count" : 265,
            "type" : "VEC3"
        },
        {
            "bufferView" : 10,
            "componentType" : 5126,
            "count" : 265,
            "type" : "VEC2"
        },
        {
            "bufferView" : 11,
            "componentType" : 5123,
            "count" : 351,
            "type" : "SCALAR"
        },
        {
            "bufferView" : 12,
            "componentType" : 5126,
            "count" : 636,
            "max" : [
                1.0173684358596802,
                0.03379809856414795,
                1.2276711463928223
            ],
            "min" : [
                -0.850489616394043,
                -0.010671421885490417,
                -1.6037836074829102
            ],
            "type" : "VEC3"
        },
        {
            "bufferView" : 13,
            "componentType" : 5126,
            "count" : 636,
            "type" : "VEC3"
        },
        {
            "bufferView" : 14,
            "componentType" : 5126,
            "count" : 636,
            "type" : "VEC2"
        },
        {
            "bufferView" : 15,
            "componentType" : 5123,
            "count" : 654,
            "type" : "SCALAR"
        }
    ],
    "bufferViews" : [
        {
            "buffer" : 0,
            "byteLength" : 4056,
            "byteOffset" : 0
        },
        {
            "buffer" : 0,
            "byteLength" : 4056,
            "byteOffset" : 4056
        },
        {
            "buffer" : 0,
            "byteLength" : 2704,
            "byteOffset" : 8112
        },
        {
            "buffer" : 0,
            "byteLength" : 696,
            "byteOffset" : 10816
        },
        {
            "buffer" : 0,
            "byteLength" : 21312,
            "byteOffset" : 11512
        },
        {
            "buffer" : 0,
            "byteLength" : 21312,
            "byteOffset" : 32824
        },
        {
            "buffer" : 0,
            "byteLength" : 14208,
            "byteOffset" : 54136
        },
        {
            "buffer" : 0,
            "byteLength" : 3978,
            "byteOffset" : 68344
        },
        {
            "buffer" : 0,
            "byteLength" : 3180,
            "byteOffset" : 72324
        },
        {
            "buffer" : 0,
            "byteLength" : 3180,
            "byteOffset" : 75504
        },
        {
            "buffer" : 0,
            "byteLength" : 2120,
            "byteOffset" : 78684
        },
        {
            "buffer" : 0,
            "byteLength" : 702,
            "byteOffset" : 80804
        },
        {
            "buffer" : 0,
            "byteLength" : 7632,
            "byteOffset" : 81508
        },
        {
            "buffer" : 0,
            "byteLength" : 7632,
            "byteOffset" : 89140
        },
        {
            "buffer" : 0,
            "byteLength" : 5088,
            "byteOffset" : 96772
        },
        {
            "buffer" : 0,
            "byteLength" : 1308,
            "byteOffset" : 101860
        }
    ],
    "samplers" : [
        {
            "magFilter" : 9729,
            "minFilter" : 9987
        }
    ],
    "buffers" : [
        {
            "byteLength" : 103168,
            "uri" : "PyPhone.bin"
        }
    ]
}
