{
    "asset" : {
        "generator" : "Khronos glTF Blender I/O v1.7.33",
        "version" : "2.0"
    },
    "scene" : 0,
    "scenes" : [
        {
            "name" : "Scene",
            "nodes" : [
                0,
                1,
                2
            ]
        }
    ],
    "nodes" : [
        {
            "name" : "Empty"
        },
        {
            "mesh" : 0,
            "name" : "Plane",
            "rotation" : [
                0.7071068286895752,
                0,
                0,
                0.7071068286895752
            ]
        },
        {
            "name" : "Empty.001",
            "rotation" : [
                0.7071068286895752,
                0,
                0,
                0.7071068286895752
            ],
            "scale" : [
                0.05262450873851776,
                0.05262450873851776,
                0.05262450873851776
            ],
            "translation" : [
                -0.0070243943482637405,
                -1.3908782005310059,
                0.14386585354804993
            ]
        }
    ],
    "materials" : [
        {
            "doubleSided" : true,
            "name" : "metal",
            "pbrMetallicRoughness" : {
                "baseColorFactor" : [
                    0.26676100492477417,
                    0.26676100492477417,
                    0.26676100492477417,
                    1
                ],
                "roughnessFactor" : 0.5
            }
        },
        {
            "doubleSided" : true,
            "name" : "color",
            "pbrMetallicRoughness" : {
                "baseColorFactor" : [
                    0.016807377338409424,
                    0.11953848600387573,
                    0.2746773064136505,
                    1
                ],
                "metallicFactor" : 0,
                "roughnessFactor" : 0.5
            }
        },
        {
            "doubleSided" : true,
            "name" : "GLASS",
            "pbrMetallicRoughness" : {
                "baseColorFactor" : [
                    0,
                    0,
                    0,
                    1
                ],
                "roughnessFactor" : 0.1165803074836731
            }
        },
        {
            "doubleSided" : true,
            "name" : "Screen",
            "pbrMetallicRoughness" : {
                "baseColorTexture" : {
                    "index" : 0
                },
                "metallicFactor" : 0.5077720284461975,
                "roughnessFactor" : 0.12953367829322815
            }
        }
    ],
    "meshes" : [
        {
            "name" : "Plane",
            "primitives" : [
                {
                    "attributes" : {
                        "POSITION" : 0,
                        "NORMAL" : 1,
                        "TEXCOORD_0" : 2
                    },
                    "indices" : 3,
                    "material" : 0
                },
                {
                    "attributes" : {
                        "POSITION" : 4,
                        "NORMAL" : 5,
                        "TEXCOORD_0" : 6
                    },
                    "indices" : 7,
                    "material" : 1
                },
                {
                    "attributes" : {
                        "POSITION" : 8,
                        "NORMAL" : 9,
                        "TEXCOORD_0" : 10
                    },
                    "indices" : 11,
                    "material" : 2
                },
                {
                    "attributes" : {
                        "POSITION" : 12,
                        "NORMAL" : 13,
                        "TEXCOORD_0" : 14
                    },
                    "indices" : 15,
                    "material" : 3
                }
            ]
        }
    ],
    "textures" : [
        {
            "sampler" : 0,
            "source" : 0
        }
    ],
    "images" : [
        {
            "bufferView" : 16,
            "mimeType" : "image/jpeg",
            "name" : "DbpZrxeX0AAtwUX"
        }
    ],
    "accessors" : [
        {
            "bufferView" : 0,
            "componentType" : 5126,
            "count" : 224,
            "max" : [
                1.0724294185638428,
                0.022223811596632004,
                1.670802354812622
            ],
            "min" : [
                -1.0125272274017334,
                -0.15851952135562897,
                -1.7024874687194824
            ],
            "type" : "VEC3"
        },
        {
            "bufferView" : 1,
            "componentType" : 5126,
            "count" : 224,
            "type" : "VEC3"
        },
        {
            "bufferView" : 2,
            "componentType" : 5126,
            "count" : 224,
            "type" : "VEC2"
        },
        {
            "bufferView" : 3,
            "componentType" : 5123,
            "count" : 348,
            "type" : "SCALAR"
        },
        {
            "bufferView" : 4,
            "componentType" : 5126,
            "count" : 1045,
            "max" : [
                1.0724294185638428,
                0.022223811596632004,
                1.670802354812622
            ],
            "min" : [
                -1.0125272274017334,
                -0.21775080263614655,
                -1.7024874687194824
            ],
            "type" : "VEC3"
        },
        {
            "bufferView" : 5,
            "componentType" : 5126,
            "count" : 1045,
            "type" : "VEC3"
        },
        {
            "bufferView" : 6,
            "componentType" : 5126,
            "count" : 1045,
            "type" : "VEC2"
        },
        {
            "bufferView" : 7,
            "componentType" : 5123,
            "count" : 1989,
            "type" : "SCALAR"
        },
        {
            "bufferView" : 8,
            "componentType" : 5126,
            "count" : 123,
            "max" : [
                0.3429626226425171,
                0.022223811596632004,
                1.5016744136810303
            ],
            "min" : [
                -0.12498331069946289,
                -0.21775080263614655,
                -1.422285795211792
            ],
            "type" : "VEC3"
        },
        {
            "bufferView" : 9,
            "componentType" : 5126,
            "count" : 123,
            "type" : "VEC3"
        },
        {
            "bufferView" : 10,
            "componentType" : 5126,
            "count" : 123,
            "type" : "VEC2"
        },
        {
            "bufferView" : 11,
            "componentType" : 5123,
            "count" : 351,
            "type" : "SCALAR"
        },
        {
            "bufferView" : 12,
            "componentType" : 5126,
            "count" : 396,
            "max" : [
                1.0173684358596802,
                0.03379809856414795,
                1.2276711463928223
            ],
            "min" : [
                -0.850489616394043,
                -0.010671421885490417,
                -1.6037836074829102
            ],
            "type" : "VEC3"
        },
        {
            "bufferView" : 13,
            "componentType" : 5126,
            "count" : 396,
            "type" : "VEC3"
        },
        {
            "bufferView" : 14,
            "componentType" : 5126,
            "count" : 396,
            "type" : "VEC2"
        },
        {
            "bufferView" : 15,
            "componentType" : 5123,
            "count" : 654,
            "type" : "SCALAR"
        }
    ],
    "bufferViews" : [
        {
            "buffer" : 0,
            "byteLength" : 2688,
            "byteOffset" : 0
        },
        {
            "buffer" : 0,
            "byteLength" : 2688,
            "byteOffset" : 2688
        },
        {
            "buffer" : 0,
            "byteLength" : 1792,
            "byteOffset" : 5376
        },
        {
            "buffer" : 0,
            "byteLength" : 696,
            "byteOffset" : 7168
        },
        {
            "buffer" : 0,
            "byteLength" : 12540,
            "byteOffset" : 7864
        },
        {
            "buffer" : 0,
            "byteLength" : 12540,
            "byteOffset" : 20404
        },
        {
            "buffer" : 0,
            "byteLength" : 8360,
            "byteOffset" : 32944
        },
        {
            "buffer" : 0,
            "byteLength" : 3978,
            "byteOffset" : 41304
        },
        {
            "buffer" : 0,
            "byteLength" : 1476,
            "byteOffset" : 45284
        },
        {
            "buffer" : 0,
            "byteLength" : 1476,
            "byteOffset" : 46760
        },
        {
            "buffer" : 0,
            "byteLength" : 984,
            "byteOffset" : 48236
        },
        {
            "buffer" : 0,
            "byteLength" : 702,
            "byteOffset" : 49220
        },
        {
            "buffer" : 0,
            "byteLength" : 4752,
            "byteOffset" : 49924
        },
        {
            "buffer" : 0,
            "byteLength" : 4752,
            "byteOffset" : 54676
        },
        {
            "buffer" : 0,
            "byteLength" : 3168,
            "byteOffset" : 59428
        },
        {
            "buffer" : 0,
            "byteLength" : 1308,
            "byteOffset" : 62596
        },
        {
            "buffer" : 0,
            "byteLength" : 49572,
            "byteOffset" : 63904
        }
    ],
    "samplers" : [
        {
            "magFilter" : 9729,
            "minFilter" : 9987
        }
    ],
    "buffers" : [
        {
            "byteLength" : 113476,
            "uri" : "data:application/octet-stream;base64,"
        }
    ]
}
