{
    "asset" : {
        "generator" : "Khronos glTF Blender I/O v1.7.33",
        "version" : "2.0"
    },
    "scene" : 0,
    "scenes" : [
        {
            "name" : "Scene",
            "nodes" : [
                0
            ]
        }
    ],
    "nodes" : [
        {
            "mesh" : 0,
            "name" : "iphone 11 max pro",
            "rotation" : [
                0.7071068286895752,
                0,
                0,
                0.7071068286895752
            ],
            "scale" : [
                0.004682623315602541,
                0.004622349049896002,
                0.004622349515557289
            ],
            "translation" : [
                0,
                4.230000019073486,
                0
            ]
        }
    ],
    "materials" : [
        {
            "doubleSided" : true,
            "name" : "Material #388",
            "pbrMetallicRoughness" : {
                "baseColorTexture" : {
                    "index" : 0
                },
                "metallicRoughnessTexture" : {
                    "index" : 1
                }
            }
        }
    ],
    "meshes" : [
        {
            "name" : "Mesh",
            "primitives" : [
                {
                    "attributes" : {
                        "POSITION" : 0,
                        "NORMAL" : 1,
                        "TEXCOORD_0" : 2,
                        "COLOR_0" : 3
                    },
                    "indices" : 4,
                    "material" : 0
                }
            ]
        }
    ],
    "textures" : [
        {
            "sampler" : 0,
            "source" : 0
        },
        {
            "sampler" : 0,
            "source" : 1
        }
    ],
    "images" : [
        {
            "bufferView" : 5,
            "mimeType" : "image/png",
            "name" : "iPhone_DefaultMaterial_Diffuse"
        },
        {
            "bufferView" : 6,
            "mimeType" : "image/png",
            "name" : "iPhone_DefaultMaterial_Reflection"
        }
    ],
    "accessors" : [
        {
            "bufferView" : 0,
            "componentType" : 5126,
            "count" : 11482,
            "max" : [
                460.5671691894531,
                49.541748046875,
                933.3817749023438
            ],
            "min" : [
                -471.8233337402344,
                -78.37959289550781,
                -942.6027221679688
            ],
            "type" : "VEC3"
        },
        {
            "bufferView" : 1,
            "componentType" : 5126,
            "count" : 11482,
            "type" : "VEC3"
        },
        {
            "bufferView" : 2,
            "componentType" : 5126,
            "count" : 11482,
            "type" : "VEC2"
        },
        {
            "bufferView" : 3,
            "componentType" : 5123,
            "count" : 11482,
            "normalized" : true,
            "type" : "VEC4"
        },
        {
            "bufferView" : 4,
            "componentType" : 5123,
            "count" : 48324,
            "type" : "SCALAR"
        }
    ],
    "bufferViews" : [
        {
            "buffer" : 0,
            "byteLength" : 137784,
            "byteOffset" : 0
        },
        {
            "buffer" : 0,
            "byteLength" : 137784,
            "byteOffset" : 137784
        },
        {
            "buffer" : 0,
            "byteLength" : 91856,
            "byteOffset" : 275568
        },
        {
            "buffer" : 0,
            "byteLength" : 91856,
            "byteOffset" : 367424
        },
        {
            "buffer" : 0,
            "byteLength" : 96648,
            "byteOffset" : 459280
        },
        {
            "buffer" : 0,
            "byteLength" : 420774,
            "byteOffset" : 555928
        },
        {
            "buffer" : 0,
            "byteLength" : 24144,
            "byteOffset" : 976704
        }
    ],
    "samplers" : [
        {
            "magFilter" : 9729,
            "minFilter" : 9987
        }
    ],
    "buffers" : [
        {
            "byteLength" : 1000848,
            "uri" : "data:application/octet-stream;base64,"
        }
    ]
}
